<svg width="12" height="12" viewBox="0 0 12 12" fill="none" xmlns="http://www.w3.org/2000/svg">
<path d="M4.33486 0.838146C4.13238 0.331935 3.64212 0 3.09693 0H1.26313C0.565521 0 0 0.565398 0 1.26302C0 7.19282 4.80706 12 10.7367 12C11.4343 12 11.9997 11.4344 11.9997 10.7368L12 8.90265C12 8.35744 11.6682 7.86724 11.162 7.66476L9.40438 6.96196C8.94968 6.78008 8.43197 6.86194 8.05576 7.17546L7.60215 7.55379C7.07239 7.99526 6.29293 7.96015 5.80531 7.47253L4.52803 6.19404C4.04042 5.70642 4.00439 4.92756 4.44585 4.39779L4.82409 3.9442C5.13761 3.56797 5.22019 3.05011 5.03831 2.5954L4.33486 0.838146Z" fill="#E85921"/>
</svg>
